<?xml version="1.0" encoding="UTF-8"?>
<svg version="1.1" xmlns="http://www.w3.org/2000/svg" width="572" height="51">
<path d="M0 0 C188.76 0 377.52 0 572 0 C572 16.83 572 33.66 572 51 C383.24 51 194.48 51 0 51 C0 34.17 0 17.34 0 0 Z " fill="#070d17" transform="translate(0,0)"/>
<path d="M0 0 C5.74744858 -0.07426628 11.4946166 -0.12865726 17.24243164 -0.16479492 C19.19690823 -0.17986301 21.15135112 -0.20032124 23.10571289 -0.22631836 C25.91821623 -0.26278865 28.73027174 -0.27974622 31.54296875 -0.29296875 C32.41398727 -0.30845261 33.2850058 -0.32393646 34.18241882 -0.33988953 C38.94374702 -0.34120448 42.16453489 -0.14765034 46 3 C48.5018939 6.75284085 48.29930669 8.89806957 48.3125 13.375 C48.32925781 14.68210937 48.34601563 15.98921875 48.36328125 17.3359375 C47.89245742 22.08467678 46.56194332 24.51352874 43.140625 27.76953125 C40.58261906 29.23991788 38.68217939 29.49459346 35.75 29.6875 C34.85796875 29.75324219 33.9659375 29.81898437 33.046875 29.88671875 C32.37140625 29.92410156 31.6959375 29.96148438 31 30 C33.78295469 33.52937632 36.21953148 36.54519237 40.69140625 37.6875 C43.1433261 37.91071888 45.53890125 38.03466336 48 38 C48 40.97 48 43.94 48 47 C36.06435713 48.05610323 36.06435713 48.05610323 31.640625 45.79296875 C29.58229904 43.97704895 27.80170049 42.07159085 26 40 C24.30614597 38.19463834 22.59716377 36.40337683 20.875 34.625 C20.08867188 33.77164063 19.30234375 32.91828125 18.4921875 32.0390625 C15.74474122 29.44625653 15.74474122 29.44625653 10 29 C10 35.27 10 41.54 10 48 C7.03 48 4.06 48 1 48 C0 47 0 47 -0.12025452 45.09544373 C-0.11803391 44.26271439 -0.11581329 43.42998505 -0.11352539 42.57202148 C-0.11344986 41.63112167 -0.11337433 40.69022186 -0.11329651 39.72080994 C-0.10813522 38.69790359 -0.10297394 37.67499725 -0.09765625 36.62109375 C-0.0962413 35.57929459 -0.09482635 34.53749542 -0.09336853 33.46412659 C-0.0877508 30.12188906 -0.0751953 26.77971743 -0.0625 23.4375 C-0.05748728 21.17773534 -0.05292398 18.91796963 -0.04882812 16.65820312 C-0.03777561 11.10544609 -0.02102024 5.55272775 0 0 Z " fill="#fd2600" transform="translate(53,1)"/>
<path d="M0 0 C0.73431747 -0.00004028 1.46863495 -0.00008057 2.22520447 -0.00012207 C3.76912043 0.00521278 5.31303758 0.02270843 6.85668945 0.05175781 C9.21194874 0.09369845 11.56435108 0.09281436 13.91992188 0.0859375 C15.425801 0.09642899 16.93166548 0.10936689 18.4375 0.125 C19.13657974 0.12520142 19.83565948 0.12540283 20.55592346 0.12561035 C24.90893765 0.23040397 27.695997 0.91908814 31.15234375 3.59375 C33.21271678 6.68430955 33.40033617 7.30301162 33.37939453 10.78979492 C33.37924347 11.63043991 33.37909241 12.4710849 33.37893677 13.33720398 C33.3686142 14.24041885 33.35829163 15.14363373 33.34765625 16.07421875 C33.34482635 17.00220779 33.34199646 17.93019684 33.33908081 18.88630676 C33.32788211 21.85141879 33.3027781 24.81622921 33.27734375 27.78125 C33.26731355 29.79101126 33.25818777 31.80077726 33.25 33.81054688 C33.22794379 38.73839753 33.19341604 43.66602262 33.15234375 48.59375 C31.67327483 48.62064216 30.19406892 48.64009621 28.71484375 48.65625 C27.89113281 48.66785156 27.06742187 48.67945313 26.21875 48.69140625 C24.15234375 48.59375 24.15234375 48.59375 23.15234375 47.59375 C23.06602501 46.25107587 23.04527902 44.90400678 23.0546875 43.55859375 C23.05718506 42.83019287 23.05968262 42.10179199 23.06225586 41.35131836 C23.07135986 40.4206958 23.08046387 39.49007324 23.08984375 38.53125 C23.11046875 35.581875 23.13109375 32.6325 23.15234375 29.59375 C13.91234375 29.59375 4.67234375 29.59375 -4.84765625 29.59375 C-4.84765625 35.86375 -4.84765625 42.13375 -4.84765625 48.59375 C-7.81765625 48.59375 -10.78765625 48.59375 -13.84765625 48.59375 C-13.99614817 42.56155145 -14.1049413 36.53041987 -14.17724609 30.49682617 C-14.20739077 28.44520534 -14.24831461 26.3937131 -14.30029297 24.3425293 C-14.37321071 21.39079059 -14.40713526 18.44075726 -14.43359375 15.48828125 C-14.46456146 14.57351517 -14.49552917 13.65874908 -14.5274353 12.71626282 C-14.52988713 8.06070089 -14.35570907 6.20858695 -11.30151367 2.51245117 C-7.37902058 0.33341157 -4.37494952 -0.10290206 0 0 Z " fill="#fd2600" transform="translate(380.84765625,0.40625)"/>
<path d="M0 0 C1.26096748 0.00022659 1.26096748 0.00022659 2.54740906 0.00045776 C3.90223137 0.01594162 3.90223137 0.01594162 5.28442383 0.03173828 C6.67640739 0.03598312 6.67640739 0.03598312 8.09651184 0.04031372 C11.06162386 0.05151242 14.02643429 0.07661644 16.99145508 0.10205078 C19.00121634 0.11208098 21.01098234 0.12120676 23.02075195 0.12939453 C27.94860261 0.15145074 32.8762277 0.18597849 37.80395508 0.22705078 C37.80395508 3.52705078 37.80395508 6.82705078 37.80395508 10.22705078 C25.26395508 10.22705078 12.72395508 10.22705078 -0.19604492 10.22705078 C-0.19604492 13.19705078 -0.19604492 16.16705078 -0.19604492 19.22705078 C12.34395508 19.22705078 24.88395508 19.22705078 37.80395508 19.22705078 C37.80395508 22.52705078 37.80395508 25.82705078 37.80395508 29.22705078 C25.26395508 29.22705078 12.72395508 29.22705078 -0.19604492 29.22705078 C-0.19604492 32.19705078 -0.19604492 35.16705078 -0.19604492 38.22705078 C12.34395508 38.22705078 24.88395508 38.22705078 37.80395508 38.22705078 C37.80395508 41.52705078 37.80395508 44.82705078 37.80395508 48.22705078 C32.07486807 48.35096621 26.34656684 48.44153896 20.61645508 48.50170898 C18.66872564 48.52680025 16.72108988 48.56088139 14.77368164 48.60424805 C11.96843317 48.66513827 9.164433 48.69331409 6.35864258 48.71533203 C5.49278534 48.74113846 4.6269281 48.76694489 3.73483276 48.79353333 C-0.51192497 48.79548824 -3.33431416 48.57470394 -6.73071289 45.8840332 C-10.52707194 41.79255216 -10.36654059 38.19384296 -10.39916992 32.89111328 C-10.40487 32.17474701 -10.41057007 31.45838074 -10.41644287 30.7203064 C-10.42588029 29.20564241 -10.43242186 27.69095801 -10.4362793 26.17626953 C-10.44598081 23.86730875 -10.47701267 21.55924009 -10.50854492 19.25048828 C-10.51507597 17.77653522 -10.52032604 16.3025758 -10.52416992 14.82861328 C-10.53651672 14.14199615 -10.54886353 13.45537903 -10.56158447 12.74795532 C-10.54149467 8.39258121 -9.87352568 5.68016964 -7.19604492 2.22705078 C-4.10548537 0.16667775 -3.4867833 -0.02094164 0 0 Z " fill="#fd2600" transform="translate(533.196044921875,0.77294921875)"/>
<path d="M0 0 C1.26096748 0.00022659 1.26096748 0.00022659 2.54740906 0.00045776 C3.90223137 0.01594162 3.90223137 0.01594162 5.28442383 0.03173828 C6.67640739 0.03598312 6.67640739 0.03598312 8.09651184 0.04031372 C11.06162386 0.05151242 14.02643429 0.07661644 16.99145508 0.10205078 C19.00121634 0.11208098 21.01098234 0.12120676 23.02075195 0.12939453 C27.94860261 0.15145074 32.8762277 0.18597849 37.80395508 0.22705078 C37.80395508 3.52705078 37.80395508 6.82705078 37.80395508 10.22705078 C25.26395508 10.22705078 12.72395508 10.22705078 -0.19604492 10.22705078 C-0.19604492 13.19705078 -0.19604492 16.16705078 -0.19604492 19.22705078 C12.34395508 19.22705078 24.88395508 19.22705078 37.80395508 19.22705078 C37.80395508 22.52705078 37.80395508 25.82705078 37.80395508 29.22705078 C25.26395508 29.22705078 12.72395508 29.22705078 -0.19604492 29.22705078 C-0.19604492 32.19705078 -0.19604492 35.16705078 -0.19604492 38.22705078 C12.34395508 38.22705078 24.88395508 38.22705078 37.80395508 38.22705078 C37.80395508 41.52705078 37.80395508 44.82705078 37.80395508 48.22705078 C32.07486807 48.35096621 26.34656684 48.44153896 20.61645508 48.50170898 C18.66872564 48.52680025 16.72108988 48.56088139 14.77368164 48.60424805 C11.96843317 48.66513827 9.164433 48.69331409 6.35864258 48.71533203 C5.49278534 48.74113846 4.6269281 48.76694489 3.73483276 48.79353333 C-0.51192497 48.79548824 -3.33431416 48.57470394 -6.73071289 45.8840332 C-10.52707194 41.79255216 -10.36654059 38.19384296 -10.39916992 32.89111328 C-10.40487 32.17474701 -10.41057007 31.45838074 -10.41644287 30.7203064 C-10.42588029 29.20564241 -10.43242186 27.69095801 -10.4362793 26.17626953 C-10.44598081 23.86730875 -10.47701267 21.55924009 -10.50854492 19.25048828 C-10.51507597 17.77653522 -10.52032604 16.3025758 -10.52416992 14.82861328 C-10.53651672 14.14199615 -10.54886353 13.45537903 -10.56158447 12.74795532 C-10.54149467 8.39258121 -9.87352568 5.68016964 -7.19604492 2.22705078 C-4.10548537 0.16667775 -3.4867833 -0.02094164 0 0 Z " fill="#fd2600" transform="translate(272.196044921875,0.77294921875)"/>
<path d="M0 0 C0.90720795 0.00141495 1.81441589 0.0028299 2.74911499 0.00428772 C5.65308905 0.00989529 8.55698665 0.02244907 11.4609375 0.03515625 C13.42708222 0.04017027 15.39322815 0.04473335 17.359375 0.04882812 C22.1849254 0.05986719 27.01041847 0.0771369 31.8359375 0.09765625 C31.8359375 3.39765625 31.8359375 6.69765625 31.8359375 10.09765625 C19.2959375 10.09765625 6.7559375 10.09765625 -6.1640625 10.09765625 C-6.1640625 13.06765625 -6.1640625 16.03765625 -6.1640625 19.09765625 C6.3759375 19.09765625 18.9159375 19.09765625 31.8359375 19.09765625 C31.8359375 22.39765625 31.8359375 25.69765625 31.8359375 29.09765625 C19.2959375 29.09765625 6.7559375 29.09765625 -6.1640625 29.09765625 C-6.1640625 32.06765625 -6.1640625 35.03765625 -6.1640625 38.09765625 C6.3759375 38.09765625 18.9159375 38.09765625 31.8359375 38.09765625 C31.8359375 41.39765625 31.8359375 44.69765625 31.8359375 48.09765625 C26.230905 48.17193293 20.62616039 48.22631833 15.02075195 48.26245117 C13.11477669 48.27751753 11.20883598 48.29797449 9.30297852 48.32397461 C6.55997174 48.36045267 3.81742422 48.37740417 1.07421875 48.390625 C0.22507401 48.40610886 -0.62407074 48.42159271 -1.49894714 48.43754578 C-6.21352448 48.43888038 -9.35920497 48.19933873 -13.1640625 45.09765625 C-15.64950397 41.36949404 -15.4872873 38.42531422 -15.5 34.10546875 C-15.5066568 33.32251434 -15.5133136 32.53955994 -15.52017212 31.73287964 C-15.53029277 30.07698921 -15.53498932 28.42105804 -15.53466797 26.76513672 C-15.539035 24.23856916 -15.57534057 21.71375776 -15.61328125 19.1875 C-15.61915091 17.57682888 -15.62311931 15.96614947 -15.625 14.35546875 C-15.63937103 13.60323029 -15.65374207 12.85099182 -15.66854858 12.07595825 C-15.63645241 8.36892863 -15.28799804 6.28993276 -13.26025391 3.14404297 C-9.26422808 -0.75703885 -5.29320675 -0.03081746 0 0 Z " fill="#fd2600" transform="translate(121.1640625,0.90234375)"/>
<path d="M0 0 C0.90720795 0.00141495 1.81441589 0.0028299 2.74911499 0.00428772 C5.65308905 0.00989529 8.55698665 0.02244907 11.4609375 0.03515625 C13.42708222 0.04017027 15.39322815 0.04473335 17.359375 0.04882812 C22.1849254 0.05986719 27.01041847 0.0771369 31.8359375 0.09765625 C31.8359375 3.06765625 31.8359375 6.03765625 31.8359375 9.09765625 C19.2959375 9.09765625 6.7559375 9.09765625 -6.1640625 9.09765625 C-6.1640625 12.39765625 -6.1640625 15.69765625 -6.1640625 19.09765625 C6.3759375 19.09765625 18.9159375 19.09765625 31.8359375 19.09765625 C31.8359375 22.06765625 31.8359375 25.03765625 31.8359375 28.09765625 C19.2959375 28.09765625 6.7559375 28.09765625 -6.1640625 28.09765625 C-6.1640625 31.39765625 -6.1640625 34.69765625 -6.1640625 38.09765625 C6.3759375 38.09765625 18.9159375 38.09765625 31.8359375 38.09765625 C31.8359375 41.06765625 31.8359375 44.03765625 31.8359375 47.09765625 C25.92778407 47.19655658 20.02011278 47.26913996 14.11132812 47.31738281 C12.10147712 47.3374943 10.09168459 47.3647874 8.08203125 47.39941406 C5.19256154 47.44795259 2.30386559 47.47062947 -0.5859375 47.48828125 C-1.93301788 47.51924896 -1.93301788 47.51924896 -3.30731201 47.55084229 C-9.5559613 47.55308822 -9.5559613 47.55308822 -12.70019531 45.19824219 C-15.42635827 41.28631656 -15.35598869 38.06291038 -15.40234375 33.421875 C-15.4104155 32.65970169 -15.41848724 31.89752838 -15.42680359 31.11225891 C-15.44064225 29.49746982 -15.45136539 27.88265151 -15.45922852 26.26782227 C-15.47642442 23.80493292 -15.52030757 21.34339219 -15.56445312 18.88085938 C-15.57458185 17.31120778 -15.58309739 15.74154478 -15.58984375 14.171875 C-15.60735184 13.43837326 -15.62485992 12.70487152 -15.64289856 11.94914246 C-15.62742168 8.27829874 -15.2745253 6.2685623 -13.26245117 3.15551758 C-9.26948833 -0.76032696 -5.29952515 -0.03085425 0 0 Z " fill="#fd2600" transform="translate(173.1640625,0.90234375)"/>
<path d="M0 0 C4.47889881 0.85127427 6.7825053 3.88746147 9.86645508 7.09765625 C10.52526169 7.7635376 11.1840683 8.42941895 11.86283875 9.11547852 C13.96330676 11.24392367 16.04572434 13.38909304 18.12817383 15.53515625 C19.54954441 16.98160508 20.97205751 18.42693216 22.39575195 19.87109375 C25.88477979 23.41098206 29.34887328 26.97293918 32.81567383 30.53515625 C33.14567383 20.63515625 33.47567383 10.73515625 33.81567383 0.53515625 C36.78567383 0.53515625 39.75567383 0.53515625 42.81567383 0.53515625 C42.86501079 6.90721498 42.90136335 13.27916321 42.92553711 19.65136719 C42.93561171 21.82033219 42.94927181 23.98928356 42.96655273 26.15820312 C42.99073706 29.27086751 43.00214215 32.38335276 43.01098633 35.49609375 C43.0213089 36.47009125 43.03163147 37.44408875 43.04226685 38.44760132 C43.04249344 39.79877548 43.04249344 39.79877548 43.04272461 41.17724609 C43.04716583 41.97222504 43.05160706 42.76720398 43.05618286 43.58627319 C42.81567383 45.53515625 42.81567383 45.53515625 40.81567383 47.53515625 C38.61328125 48.05444336 38.61328125 48.05444336 35.81567383 47.53515625 C33.2900248 45.7006109 31.20433414 43.48028489 29.05395508 41.2265625 C28.42208786 40.58524887 27.79022064 39.94393524 27.13920593 39.28318787 C25.1234172 37.23280616 23.12546441 35.16604702 21.12817383 33.09765625 C19.11681982 31.03638437 17.10198538 28.97860392 15.08500671 26.9228363 C13.83112916 25.64249899 12.58117898 24.35830157 11.33552551 23.06996155 C8.38190932 19.9078102 8.38190932 19.9078102 4.81567383 17.53515625 C4.81567383 27.76515625 4.81567383 37.99515625 4.81567383 48.53515625 C1.84567383 48.53515625 -1.12432617 48.53515625 -4.18432617 48.53515625 C-4.233661 42.0206819 -4.27001469 35.50631562 -4.29418945 28.99169922 C-4.30426442 26.77423204 -4.31792477 24.5567782 -4.33520508 22.33935547 C-4.3593878 19.15719313 -4.37079414 15.97520601 -4.37963867 12.79296875 C-4.38996124 11.79709747 -4.40028381 10.8012262 -4.41091919 9.775177 C-4.41107025 8.85437347 -4.41122131 7.93356995 -4.41137695 6.98486328 C-4.41581818 6.17211945 -4.4202594 5.35937561 -4.42483521 4.52200317 C-4.06227882 1.52692215 -2.85087592 0.69845982 0 0 Z " fill="#fd2600" transform="translate(423.184326171875,0.46484375)"/>
<path d="M0 0 C0.90720795 0.00141495 1.81441589 0.0028299 2.74911499 0.00428772 C5.65308905 0.00989529 8.55698665 0.02244907 11.4609375 0.03515625 C13.42708222 0.04017027 15.39322815 0.04473335 17.359375 0.04882812 C22.1849254 0.05986719 27.01041847 0.0771369 31.8359375 0.09765625 C31.8359375 3.39765625 31.8359375 6.69765625 31.8359375 10.09765625 C19.2959375 10.09765625 6.7559375 10.09765625 -6.1640625 10.09765625 C-6.1640625 13.06765625 -6.1640625 16.03765625 -6.1640625 19.09765625 C6.3759375 19.09765625 18.9159375 19.09765625 31.8359375 19.09765625 C31.8359375 22.39765625 31.8359375 25.69765625 31.8359375 29.09765625 C19.2959375 29.09765625 6.7559375 29.09765625 -6.1640625 29.09765625 C-6.1640625 35.36765625 -6.1640625 41.63765625 -6.1640625 48.09765625 C-9.4640625 48.09765625 -12.7640625 48.09765625 -16.1640625 48.09765625 C-16.28797793 42.36856924 -16.37855068 36.64026801 -16.4387207 30.91015625 C-16.46381196 28.96242682 -16.49789311 27.01479105 -16.54125977 25.06738281 C-16.60214999 22.26213435 -16.63032581 19.45813417 -16.65234375 16.65234375 C-16.67815018 15.78648651 -16.7039566 14.92062927 -16.73054504 14.02853394 C-16.73251833 9.7418718 -16.50972379 6.96433786 -13.75854492 3.56298828 C-9.38621368 -0.59169327 -5.76782064 -0.0335807 0 0 Z " fill="#fd2600" transform="translate(17.1640625,0.90234375)"/>
<path d="M0 0 C1.26108078 0.0001133 1.26108078 0.0001133 2.54763794 0.00022888 C3.91020218 0.00797081 3.91020218 0.00797081 5.30029297 0.01586914 C6.22969696 0.01728409 7.15910095 0.01869904 8.1166687 0.02015686 C11.09197171 0.02576486 14.06720011 0.03831871 17.04248047 0.05102539 C19.0568023 0.05603936 21.07112531 0.06060245 23.08544922 0.06469727 C28.02948849 0.07573689 32.97347182 0.0930069 37.91748047 0.11352539 C37.91748047 3.41352539 37.91748047 6.71352539 37.91748047 10.11352539 C25.37748047 10.11352539 12.83748047 10.11352539 -0.08251953 10.11352539 C-0.08251953 19.35352539 -0.08251953 28.59352539 -0.08251953 38.11352539 C12.12748047 38.11352539 24.33748047 38.11352539 36.91748047 38.11352539 C36.91748047 41.08352539 36.91748047 44.05352539 36.91748047 47.11352539 C31.00932704 47.21242572 25.10165574 47.2850091 19.19287109 47.33325195 C17.18302009 47.35336344 15.17322756 47.38065654 13.16357422 47.4152832 C10.27410451 47.46382173 7.38540856 47.48649861 4.49560547 47.50415039 C3.14852509 47.5351181 3.14852509 47.5351181 1.77423096 47.56671143 C-4.45373828 47.56894993 -4.45373828 47.56894993 -7.61865234 45.27661133 C-10.3751356 41.20348898 -10.27166486 37.29846183 -10.32080078 32.55883789 C-10.32887253 31.82027557 -10.33694427 31.08171326 -10.34526062 30.32077026 C-10.35907826 28.75903658 -10.36981078 27.197273 -10.37768555 25.63549805 C-10.38921629 24.04100681 -10.40968566 22.44655451 -10.43920898 20.85229492 C-10.48192044 18.54587634 -10.49805749 16.24060302 -10.50830078 13.93383789 C-10.53456291 12.87110153 -10.53456291 12.87110153 -10.56135559 11.78689575 C-10.54559243 8.17341421 -10.16922949 6.24695786 -8.1809082 3.18725586 C-5.33396282 0.37376499 -3.87774886 -0.01161003 0 0 Z " fill="#fd2600" transform="translate(481.08251953125,0.886474609375)"/>
<path d="M0 0 C2.97 0 5.94 0 9 0 C8.96221436 0.73001221 8.92442871 1.46002441 8.88549805 2.2121582 C7.60296619 17.06747527 7.60296619 17.06747527 12.9609375 30.17578125 C16.03440123 32.94808393 19.35204589 35.06186583 23 37 C24.23310435 36.10959463 25.46126564 35.21234296 26.6875 34.3125 C27.37199219 33.81363281 28.05648438 33.31476562 28.76171875 32.80078125 C29.50035156 32.20652344 30.23898437 31.61226562 31 31 C31.8971875 30.38125 32.794375 29.7625 33.71875 29.125 C37.38732082 24.09956051 36.78314295 18.75136078 36.8125 12.6875 C36.83763672 11.46998047 36.86277344 10.25246094 36.88867188 8.99804688 C36.94748901 5.99837313 36.98381039 3.00015702 37 0 C40.3 0 43.6 0 47 0 C49.25234627 27.98773473 49.25234627 27.98773473 44.3515625 34.48828125 C41.77224219 37.08240125 38.93931691 39.13663241 35.76513672 40.94580078 C33.87580318 42.07417453 32.27184404 43.38964728 30.56640625 44.77734375 C27.38462487 47.0390652 24.89129733 47.80053258 20.98583984 47.53320312 C17.15208046 46.50382883 14.62082691 43.94248733 11.8125 41.25 C10.63195817 40.17138473 9.45097669 39.09325043 8.26953125 38.015625 C7.76010986 37.53383789 7.25068848 37.05205078 6.72583008 36.55566406 C4.92961843 34.855236 4.92961843 34.855236 2.32617188 33.25976562 C0 31 0 31 -0.56762695 27.70019531 C-0.54144287 26.42241211 -0.51525879 25.14462891 -0.48828125 23.828125 C-0.48120651 23.1457074 -0.47413177 22.46328979 -0.46684265 21.76019287 C-0.43894021 19.58899439 -0.37622253 17.42041332 -0.3125 15.25 C-0.28741117 13.77477694 -0.264599 12.29951329 -0.24414062 10.82421875 C-0.18913137 7.21530096 -0.10289307 3.60790609 0 0 Z " fill="#fd2600" transform="translate(315,1)"/>
<path d="M0 0 C15.84 0 31.68 0 48 0 C48 0.33 48 0.66 48 1 C44.7 1 41.4 1 38 1 C38.06807861 1.72477539 38.13615723 2.44955078 38.20629883 3.19628906 C40.01703076 25.36232781 40.01703076 25.36232781 35.10546875 31.3984375 C32.03352183 34.41184266 28.68052365 36.78561901 25 39 C23.81001879 38.1283774 22.62318786 37.25245401 21.4375 36.375 C20.77621094 35.88773438 20.11492187 35.40046875 19.43359375 34.8984375 C18.63050781 34.27195313 17.82742188 33.64546875 17 33 C16.39808838 32.64373535 15.79617676 32.2874707 15.17602539 31.92041016 C12.96124388 30.43078781 11.53273068 29.19871535 10 27 C9.13881195 22.51281626 9.33831711 18.17270998 9.5625 13.625 C9.59408203 12.41199219 9.62566406 11.19898438 9.65820312 9.94921875 C9.74048235 6.96365816 9.85539067 3.9830839 10 1 C6.7 1 3.4 1 0 1 C0 0.67 0 0.34 0 0 Z " fill="#070d17" transform="translate(314,0)"/>
<path d="M0 0 C3.3 0 6.6 0 10 0 C10 12.54 10 25.08 10 38 C22.54 38 35.08 38 48 38 C48 41.3 48 44.6 48 48 C42.27091299 48.12391543 36.54261176 48.21448818 30.8125 48.2746582 C28.86477057 48.29974946 26.9171348 48.33383061 24.96972656 48.37719727 C22.1644781 48.43808749 19.36047792 48.46626331 16.5546875 48.48828125 C15.68883026 48.51408768 14.82297302 48.5398941 13.93087769 48.56648254 C9.68411995 48.56843746 6.86173077 48.34765316 3.46533203 45.65698242 C0.45508436 42.41272361 -0.12698631 40.2546594 -0.11352539 35.98754883 C-0.11344986 35.18694534 -0.11337433 34.38634186 -0.11329651 33.56147766 C-0.10813522 32.70201035 -0.10297394 31.84254303 -0.09765625 30.95703125 C-0.0962413 30.0734343 -0.09482635 29.18983734 -0.09336853 28.27946472 C-0.08777069 25.45710872 -0.07521861 22.63483203 -0.0625 19.8125 C-0.05748472 17.89908969 -0.05292186 15.98567813 -0.04882812 14.07226562 C-0.03780197 9.38147986 -0.02053883 4.69075337 0 0 Z " fill="#fd2600" transform="translate(210,1)"/>
<path d="M0 0 C9.24 0 18.48 0 28 0 C28 2.97 28 5.94 28 9 C18.76 9 9.52 9 0 9 C0 6.03 0 3.06 0 0 Z " fill="#070d17" transform="translate(376,11)"/>
<path d="M0 0 C9.24 0 18.48 0 28 0 C28 2.97 28 5.94 28 9 C18.76 9 9.52 9 0 9 C0 6.03 0 3.06 0 0 Z " fill="#070d17" transform="translate(63,11)"/>
</svg>
