<?xml version="1.0" encoding="UTF-8"?>
<svg version="1.1" xmlns="http://www.w3.org/2000/svg" width="575" height="52">
<path d="M0 0 C1.29111191 0.0001133 1.29111191 0.0001133 2.60830688 0.00022888 C3.53855682 0.00539017 4.46880676 0.01055145 5.42724609 0.01586914 C6.37884613 0.01728409 7.33044617 0.01869904 8.31088257 0.02015686 C11.35751456 0.02576527 14.40407372 0.0383192 17.45068359 0.05102539 C19.51318253 0.05603931 21.57568262 0.0606024 23.63818359 0.06469727 C28.70071176 0.07573744 33.76318532 0.09300772 38.82568359 0.11352539 C38.82568359 3.41352539 38.82568359 6.71352539 38.82568359 10.11352539 C26.28568359 10.11352539 13.74568359 10.11352539 0.82568359 10.11352539 C0.82568359 13.08352539 0.82568359 16.05352539 0.82568359 19.11352539 C13.36568359 19.11352539 25.90568359 19.11352539 38.82568359 19.11352539 C38.82568359 22.41352539 38.82568359 25.71352539 38.82568359 29.11352539 C26.28568359 29.11352539 13.74568359 29.11352539 0.82568359 29.11352539 C0.82568359 32.08352539 0.82568359 35.05352539 0.82568359 38.11352539 C13.36568359 38.11352539 25.90568359 38.11352539 38.82568359 38.11352539 C38.82568359 41.41352539 38.82568359 44.71352539 38.82568359 48.11352539 C32.95417931 48.23742092 27.08344117 48.32800463 21.2109375 48.38818359 C19.21470886 48.41327811 17.21857166 48.44736165 15.22265625 48.49072266 C12.34791472 48.55159785 9.47439112 48.57978563 6.59912109 48.60180664 C5.71139008 48.62761307 4.82365906 48.65341949 3.9090271 48.68000793 C-0.38621525 48.68193807 -3.28437239 48.49395595 -6.72265625 45.77050781 C-10.48580037 41.69220693 -10.35589677 38.09010099 -10.41259766 32.81274414 C-10.4206694 32.09874954 -10.42874115 31.38475494 -10.4370575 30.64912415 C-10.45087521 29.13866589 -10.4616077 27.62817671 -10.46948242 26.11767578 C-10.48099892 24.57851974 -10.50144588 23.03940353 -10.53100586 21.50048828 C-10.5738215 19.27096553 -10.58986962 17.04262772 -10.60009766 14.81274414 C-10.61760574 14.1312883 -10.63511383 13.44983246 -10.65315247 12.74772644 C-10.63073245 7.76226283 -9.29369165 4.95077431 -6.17431641 1.11352539 C-3.86611133 -0.04057715 -2.56647364 -0.00750431 0 0 Z " fill="#000000" transform="translate(116.17431640625,1.886474609375)"/>
<path d="M0 0 C1.29099861 0.00022659 1.29099861 0.00022659 2.608078 0.00045776 C3.99571098 0.01594162 3.99571098 0.01594162 5.41137695 0.03173828 C6.36156204 0.03456818 7.31174713 0.03739807 8.29072571 0.04031372 C11.32716435 0.05151363 14.36330863 0.0766179 17.3996582 0.10205078 C19.45759665 0.11208082 21.51553972 0.12120663 23.57348633 0.12939453 C28.6198238 0.15145236 33.66594108 0.18598096 38.7121582 0.22705078 C38.7121582 3.52705078 38.7121582 6.82705078 38.7121582 10.22705078 C26.1721582 10.22705078 13.6321582 10.22705078 0.7121582 10.22705078 C0.7121582 13.19705078 0.7121582 16.16705078 0.7121582 19.22705078 C13.2521582 19.22705078 25.7921582 19.22705078 38.7121582 19.22705078 C38.7121582 22.52705078 38.7121582 25.82705078 38.7121582 29.22705078 C26.1721582 29.22705078 13.6321582 29.22705078 0.7121582 29.22705078 C0.7121582 32.19705078 0.7121582 35.16705078 0.7121582 38.22705078 C13.2521582 38.22705078 25.7921582 38.22705078 38.7121582 38.22705078 C38.7121582 41.52705078 38.7121582 44.82705078 38.7121582 48.22705078 C32.84065392 48.35094631 26.96991578 48.44153002 21.09741211 48.50170898 C19.10118347 48.5268035 17.10504627 48.56088704 15.10913086 48.60424805 C12.23438933 48.66512324 9.36086573 48.69331102 6.4855957 48.71533203 C5.59786469 48.74113846 4.71013367 48.76694489 3.79550171 48.79353333 C-0.45997167 48.79544559 -3.40292918 48.60888772 -6.83618164 45.9465332 C-11.8209331 40.41724157 -10.50774962 33.64144831 -10.52807617 26.49243164 C-10.53776189 24.43155236 -10.56880257 22.37167992 -10.6003418 20.31103516 C-10.65022925 7.60844192 -10.65022925 7.60844192 -7.2878418 2.22705078 C-4.17476243 0.15166454 -3.52435985 -0.02067073 0 0 Z " fill="#010101" transform="translate(168.287841796875,1.77294921875)"/>
<path d="M0 0 C10.4878125 -0.1546875 10.4878125 -0.1546875 21.1875 -0.3125 C23.38688232 -0.35802002 25.58626465 -0.40354004 27.85229492 -0.45043945 C29.60333736 -0.46504792 31.35439682 -0.47778775 33.10546875 -0.48828125 C34.00833618 -0.51386108 34.91120361 -0.53944092 35.84143066 -0.5657959 C40.33782073 -0.56891017 42.3627254 -0.46875963 46.07910156 2.26489258 C47.96058268 4.94387491 48.63223549 6.05393263 48.62890625 9.25 C48.63083984 10.0234375 48.63277344 10.796875 48.63476562 11.59375 C48.61091797 12.3878125 48.58707031 13.181875 48.5625 14 C48.57345703 14.7940625 48.58441406 15.588125 48.59570312 16.40625 C48.54531771 20.4370831 48.30098126 22.52729324 46.08984375 26 C43.02671541 28.93144245 41.01095805 29.19132428 36.875 29.5625 C35.50988281 29.68818359 35.50988281 29.68818359 34.1171875 29.81640625 C33.41851562 29.87699219 32.71984375 29.93757813 32 30 C35.95776438 34.92910013 35.95776438 34.92910013 41.46875 37.6875 C44.19770413 37.99936284 44.19770413 37.99936284 48 38 C48 41.3 48 44.6 48 48 C43.21550244 49.24612316 38.67351965 49.80157648 34 48 C29.56437862 44.67189145 25.88858916 40.62826731 22.21923828 36.49072266 C21.49720215 35.68038574 20.77516602 34.87004883 20.03125 34.03515625 C19.39767578 33.2862915 18.76410156 32.53742676 18.11132812 31.76586914 C15.67484846 29.42500537 15.67484846 29.42500537 10 29 C10 35.27 10 41.54 10 48 C6.7 48 3.4 48 0 48 C0 32.16 0 16.32 0 0 Z M10 10 C10 12.97 10 15.94 10 19 C19.24 19 28.48 19 38 19 C38 16.03 38 13.06 38 10 C28.76 10 19.52 10 10 10 Z " fill="#010101" transform="translate(54,2)"/>
<path d="M0 0 C1.42103279 0.01273453 1.42103279 0.01273453 2.87077332 0.02572632 C5.88767673 0.05923347 8.90187751 0.13450774 11.91796875 0.2109375 C13.96675819 0.24104058 16.01558966 0.26841578 18.06445312 0.29296875 C23.07916156 0.35901617 28.09185745 0.46251969 33.10546875 0.5859375 C33.10546875 3.8859375 33.10546875 7.1859375 33.10546875 10.5859375 C20.56546875 10.5859375 8.02546875 10.5859375 -4.89453125 10.5859375 C-4.89453125 13.5559375 -4.89453125 16.5259375 -4.89453125 19.5859375 C7.64546875 19.5859375 20.18546875 19.5859375 33.10546875 19.5859375 C33.10546875 22.8859375 33.10546875 26.1859375 33.10546875 29.5859375 C20.56546875 29.5859375 8.02546875 29.5859375 -4.89453125 29.5859375 C-4.89453125 32.5559375 -4.89453125 35.5259375 -4.89453125 38.5859375 C7.64546875 38.5859375 20.18546875 38.5859375 33.10546875 38.5859375 C33.10546875 41.8859375 33.10546875 45.1859375 33.10546875 48.5859375 C27.35802017 48.66020378 21.61085215 48.71459476 15.86303711 48.75073242 C13.90856052 48.76580051 11.95411763 48.78625874 9.99975586 48.81225586 C7.18725252 48.84872615 4.37519701 48.86568372 1.5625 48.87890625 C0.25597221 48.90213203 0.25597221 48.90213203 -1.07695007 48.92582703 C-5.83827827 48.92714198 -9.05906614 48.73358784 -12.89453125 45.5859375 C-15.37111116 41.87106764 -15.23496375 38.93504197 -15.265625 34.62890625 C-15.27465347 33.84832352 -15.28368195 33.06774078 -15.29298401 32.26350403 C-15.30748626 30.61182488 -15.31637319 28.96008829 -15.32006836 27.30834961 C-15.33194148 24.79245972 -15.38110148 22.27904235 -15.43164062 19.76367188 C-15.44110818 18.15626193 -15.44834163 16.54883696 -15.453125 14.94140625 C-15.47265732 14.19432907 -15.49218964 13.44725189 -15.51231384 12.67753601 C-15.47936122 8.8246996 -14.84143018 6.4893612 -12.97802734 3.1003418 C-8.64620862 -0.43199399 -5.42900766 -0.183789 0 0 Z " fill="#000000" transform="translate(538.89453125,1.4140625)"/>
<path d="M0 0 C1.26108078 0.0001133 1.26108078 0.0001133 2.54763794 0.00022888 C3.91020218 0.00797081 3.91020218 0.00797081 5.30029297 0.01586914 C6.22969696 0.01728409 7.15910095 0.01869904 8.1166687 0.02015686 C11.09197171 0.02576486 14.06720011 0.03831871 17.04248047 0.05102539 C19.0568023 0.05603936 21.07112531 0.06060245 23.08544922 0.06469727 C28.02948849 0.07573689 32.97347182 0.0930069 37.91748047 0.11352539 C37.91748047 3.41352539 37.91748047 6.71352539 37.91748047 10.11352539 C25.37748047 10.11352539 12.83748047 10.11352539 -0.08251953 10.11352539 C-0.08251953 13.08352539 -0.08251953 16.05352539 -0.08251953 19.11352539 C12.45748047 19.11352539 24.99748047 19.11352539 37.91748047 19.11352539 C37.91748047 22.41352539 37.91748047 25.71352539 37.91748047 29.11352539 C25.37748047 29.11352539 12.83748047 29.11352539 -0.08251953 29.11352539 C-0.08251953 32.08352539 -0.08251953 35.05352539 -0.08251953 38.11352539 C12.45748047 38.11352539 24.99748047 38.11352539 37.91748047 38.11352539 C37.91748047 41.41352539 37.91748047 44.71352539 37.91748047 48.11352539 C32.17003189 48.18779167 26.42286387 48.24218265 20.67504883 48.27832031 C18.72057224 48.2933884 16.76612935 48.31384663 14.81176758 48.33984375 C11.99926424 48.37631405 9.18720873 48.39327161 6.37451172 48.40649414 C5.06798393 48.42971992 5.06798393 48.42971992 3.73506165 48.45341492 C-1.02626655 48.45472987 -4.24705442 48.26117573 -8.08251953 45.11352539 C-10.567961 41.38536318 -10.40574433 38.44118336 -10.41845703 34.12133789 C-10.42511383 33.33838348 -10.43177063 32.55542908 -10.43862915 31.74874878 C-10.4487498 30.09285835 -10.45344635 28.43692718 -10.453125 26.78100586 C-10.45749203 24.2544383 -10.4937976 21.7296269 -10.53173828 19.20336914 C-10.53760794 17.59269802 -10.54157634 15.98201861 -10.54345703 14.37133789 C-10.55782806 13.61909943 -10.5721991 12.86686096 -10.58700562 12.09182739 C-10.55490944 8.38479777 -10.20645507 6.3058019 -8.17871094 3.15991211 C-5.32759686 0.37653939 -3.86281287 -0.01156531 0 0 Z " fill="#010101" transform="translate(273.08251953125,1.886474609375)"/>
<path d="M0 0 C1.74688039 -0.01655196 3.49369325 -0.04383229 5.24023438 -0.08203125 C7.76183109 -0.13688486 10.28184158 -0.15868561 12.80395508 -0.17333984 C13.96982903 -0.2073439 13.96982903 -0.2073439 15.15925598 -0.24203491 C19.16398273 -0.22648364 21.0749661 0.16505965 24.28515625 2.6328125 C27.87602993 7.43820195 27.46309761 12.18994403 27.44848633 18.01806641 C27.44944305 18.85348465 27.45039978 19.68890289 27.4513855 20.54963684 C27.45206468 22.31051713 27.45022867 24.07139994 27.44604492 25.83227539 C27.44067275 28.53814243 27.44600909 31.243845 27.45239258 33.94970703 C27.45173215 35.65999386 27.45045171 37.37028058 27.44848633 39.08056641 C27.45051056 39.89406052 27.45253479 40.70755463 27.45462036 41.54570007 C27.43063808 47.23513341 27.43063808 47.23513341 26.31567383 48.35009766 C22.97949151 48.49266955 19.65591777 48.39237923 16.31567383 48.35009766 C16.31567383 42.08009766 16.31567383 35.81009766 16.31567383 29.35009766 C7.40567383 29.35009766 -1.50432617 29.35009766 -10.68432617 29.35009766 C-10.68432617 35.62009766 -10.68432617 41.89009766 -10.68432617 48.35009766 C-14.31432617 48.35009766 -17.94432617 48.35009766 -21.68432617 48.35009766 C-21.78345901 42.62098193 -21.85591957 36.89236927 -21.90405273 31.16259766 C-21.92412523 29.214918 -21.95138949 27.26729829 -21.98608398 25.31982422 C-22.03479469 22.51466045 -22.05733858 19.71029579 -22.07495117 16.90478516 C-22.09559631 16.03892792 -22.11624146 15.17307068 -22.13751221 14.28097534 C-22.13957787 8.67180156 -21.35267833 5.6554231 -17.68432617 1.35009766 C-12.82746272 -1.07833407 -5.40103443 0.03752479 0 0 Z M-10.68432617 10.35009766 C-10.68432617 13.32009766 -10.68432617 16.29009766 -10.68432617 19.35009766 C-1.77432617 19.35009766 7.13567383 19.35009766 16.31567383 19.35009766 C16.31567383 16.38009766 16.31567383 13.41009766 16.31567383 10.35009766 C7.40567383 10.35009766 -1.50432617 10.35009766 -10.68432617 10.35009766 Z " fill="#000000" transform="translate(388.684326171875,1.64990234375)"/>
<path d="M0 0 C4.64902746 0.91027944 6.75123943 3.39621033 9.94287109 6.7578125 C10.55587067 7.37930176 11.16887024 8.00079102 11.80044556 8.64111328 C13.75049723 10.62468726 15.67863262 12.62810987 17.60693359 14.6328125 C18.9271549 15.98313446 20.24875483 17.33211 21.57177734 18.6796875 C24.81089289 21.97976507 28.01954613 25.30584847 31.23193359 28.6328125 C31.56193359 19.3928125 31.89193359 10.1528125 32.23193359 0.6328125 C35.86193359 0.6328125 39.49193359 0.6328125 43.23193359 0.6328125 C43.306013 6.9865462 43.36050239 13.3400293 43.39672852 19.6940918 C43.41182804 21.85624571 43.4323093 24.01836893 43.45825195 26.18041992 C43.49458377 29.2857215 43.51164822 32.39061864 43.52490234 35.49609375 C43.5403862 36.46492996 43.55587006 37.43376617 43.57182312 38.43196106 C43.57204971 39.3326683 43.57227631 40.23337555 43.57250977 41.16137695 C43.5791716 41.95413528 43.58583344 42.74689362 43.59269714 43.56367493 C43.13893227 46.16621599 42.29501068 47.03196899 40.23193359 48.6328125 C37.97143555 49.21679688 37.97143555 49.21679688 35.23193359 48.6328125 C32.68847893 46.77941083 30.57422593 44.55559392 28.39990234 42.2890625 C27.76329178 41.6453772 27.12668121 41.00169189 26.47077942 40.33850098 C24.44162835 38.28137785 22.43055327 36.20755241 20.41943359 34.1328125 C19.04624077 32.73454075 17.67190467 31.33739078 16.29638672 29.94140625 C12.92582855 26.51999476 9.58025893 23.07656193 6.23193359 19.6328125 C5.90193359 29.2028125 5.57193359 38.7728125 5.23193359 48.6328125 C1.60193359 48.6328125 -2.02806641 48.6328125 -5.76806641 48.6328125 C-5.84222733 42.43980531 -5.89667397 36.24705666 -5.93286133 30.05371094 C-5.9479471 27.9468943 -5.96841833 25.84010906 -5.99438477 23.73339844 C-6.03077693 20.7049993 -6.0477949 17.67701541 -6.06103516 14.6484375 C-6.07651901 13.70663635 -6.09200287 12.76483521 -6.10795593 11.79449463 C-6.10818253 10.91388367 -6.10840912 10.03327271 -6.10864258 9.12597656 C-6.11530441 8.35320374 -6.12196625 7.58043091 -6.12882996 6.78424072 C-5.47036878 2.85748051 -3.8562868 0.88159247 0 0 Z " fill="#010101" transform="translate(424.76806640625,1.3671875)"/>
<path d="M0 0 C1.26108078 0.0001133 1.26108078 0.0001133 2.54763794 0.00022888 C3.91020218 0.00797081 3.91020218 0.00797081 5.30029297 0.01586914 C6.22969696 0.01728409 7.15910095 0.01869904 8.1166687 0.02015686 C11.09197171 0.02576486 14.06720011 0.03831871 17.04248047 0.05102539 C19.0568023 0.05603936 21.07112531 0.06060245 23.08544922 0.06469727 C28.02948849 0.07573689 32.97347182 0.0930069 37.91748047 0.11352539 C37.91748047 3.41352539 37.91748047 6.71352539 37.91748047 10.11352539 C25.37748047 10.11352539 12.83748047 10.11352539 -0.08251953 10.11352539 C-0.08251953 13.08352539 -0.08251953 16.05352539 -0.08251953 19.11352539 C12.45748047 19.11352539 24.99748047 19.11352539 37.91748047 19.11352539 C37.91748047 22.41352539 37.91748047 25.71352539 37.91748047 29.11352539 C25.37748047 29.11352539 12.83748047 29.11352539 -0.08251953 29.11352539 C-0.08251953 35.38352539 -0.08251953 41.65352539 -0.08251953 48.11352539 C-3.38251953 48.11352539 -6.68251953 48.11352539 -10.08251953 48.11352539 C-10.18152769 42.22368252 -10.25405434 36.33432594 -10.30224609 30.44384766 C-10.32233945 28.44083211 -10.34961919 26.43787507 -10.38427734 24.43505859 C-10.43289564 21.55299431 -10.45551105 18.67170673 -10.47314453 15.78930664 C-10.49378967 14.89641434 -10.51443481 14.00352203 -10.53570557 13.08357239 C-10.53721238 8.89168979 -10.45027624 6.70255064 -8.18310547 3.07128906 C-5.30884316 0.39245254 -3.81848863 -0.0114326 0 0 Z " fill="#010101" transform="translate(12.08251953125,1.886474609375)"/>
<path d="M0 0 C0.94735519 0.00707474 1.89471039 0.01414948 2.87077332 0.0214386 C5.88731896 0.04935791 8.90198715 0.1120921 11.91796875 0.17578125 C13.96677001 0.20086729 16.01560045 0.22367992 18.06445312 0.24414062 C23.07884496 0.29917666 28.09183889 0.38543269 33.10546875 0.48828125 C33.10546875 3.78828125 33.10546875 7.08828125 33.10546875 10.48828125 C20.56546875 10.48828125 8.02546875 10.48828125 -4.89453125 10.48828125 C-4.89453125 19.72828125 -4.89453125 28.96828125 -4.89453125 38.48828125 C7.64546875 38.48828125 20.18546875 38.48828125 33.10546875 38.48828125 C33.10546875 41.78828125 33.10546875 45.08828125 33.10546875 48.48828125 C27.21562588 48.58728941 21.3262693 48.65981606 15.43579102 48.70800781 C13.43277547 48.72810116 11.42981843 48.7553809 9.42700195 48.79003906 C6.54493767 48.83865736 3.66365009 48.86127277 0.78125 48.87890625 C-0.55808846 48.90987396 -0.55808846 48.90987396 -1.92448425 48.94146729 C-6.11636685 48.9429741 -8.305506 48.85603796 -11.93676758 46.58886719 C-16.70377946 41.4740935 -15.19847006 33.44771002 -15.24462891 26.80395508 C-15.26118086 25.05707469 -15.2884612 23.31026182 -15.32666016 21.5637207 C-15.38151377 19.04212399 -15.40331451 16.5221135 -15.41796875 14 C-15.44063812 13.2227507 -15.4633075 12.4455014 -15.48666382 11.6446991 C-15.47205853 7.88357929 -15.01349311 5.674803 -12.98022461 2.48681641 C-8.6090153 -0.34431892 -5.10107305 -0.14390615 0 0 Z " fill="#000000" transform="translate(486.89453125,1.51171875)"/>
<path d="M0 0 C3.3 0 6.6 0 10 0 C9.97268799 0.70495605 9.94537598 1.40991211 9.91723633 2.13623047 C8.82604059 16.18467409 8.82604059 16.18467409 13.41015625 28.8515625 C17.07414847 32.12453578 20.33313859 34.44437953 25 36 C25.69867188 35.36191406 26.39734375 34.72382812 27.1171875 34.06640625 C28.02726562 33.24011719 28.93734375 32.41382813 29.875 31.5625 C30.77992188 30.73878906 31.68484375 29.91507813 32.6171875 29.06640625 C35 27 35 27 37 26 C37.33 17.42 37.66 8.84 38 0 C41.3 0 44.6 0 48 0 C48.27488439 4.23129729 48.47277886 8.45770209 48.60424805 12.6953125 C48.65910072 14.1314552 48.73382914 15.56699688 48.82983398 17.00097656 C49.60331366 28.8637558 49.60331366 28.8637558 45.6628418 34.11401367 C42.88760702 36.65215993 40.08422255 38.85286769 37 41 C35.47586461 42.18325889 33.95425311 43.36979288 32.4375 44.5625 C28.47034345 47.47394753 26.06534528 48.7367775 21 48 C18.63070065 46.58780375 16.65990984 44.99777945 14.58984375 43.171875 C12.0110873 40.87936569 12.0110873 40.87936569 8.75390625 39.140625 C4.75179665 36.48197975 1.93625583 34.47673335 0 30 C-1.5199897 20.12778618 -0.73208835 9.91604278 0 0 Z " fill="#010101" transform="translate(315,2)"/>
<path d="M0 0 C3.3 0 6.6 0 10 0 C10 12.54 10 25.08 10 38 C22.54 38 35.08 38 48 38 C48 41.3 48 44.6 48 48 C42.25255142 48.07426628 36.5053834 48.12865726 30.75756836 48.16479492 C28.80309177 48.17986301 26.84864888 48.20032124 24.89428711 48.22631836 C22.08178377 48.26278865 19.26972826 48.27974622 16.45703125 48.29296875 C15.15050346 48.31619453 15.15050346 48.31619453 13.81758118 48.33988953 C9.05625298 48.34120448 5.83546511 48.14765034 2 45 C-0.06037303 41.90944045 -0.24799242 41.29073838 -0.22705078 37.80395508 C-0.22689972 36.96331009 -0.22674866 36.1226651 -0.22659302 35.25654602 C-0.21627045 34.35333115 -0.20594788 33.45011627 -0.1953125 32.51953125 C-0.1924826 31.59154221 -0.18965271 30.66355316 -0.18673706 29.70744324 C-0.17553836 26.74233121 -0.15043435 23.77752079 -0.125 20.8125 C-0.1149698 18.80273874 -0.10584402 16.79297274 -0.09765625 14.78320312 C-0.07560004 9.85535247 -0.04107229 4.92772738 0 0 Z " fill="#000000" transform="translate(211,2)"/>
</svg>
